<svg width="209" height="22" viewBox="0 0 209 22" fill="none" xmlns="http://www.w3.org/2000/svg">
<path d="M1.41992 20.0156C1.10091 19.8333 0.822917 19.6419 0.585938 19.4414C0.358073 19.2409 0.244141 19.0267 0.244141 18.7988C0.244141 18.3613 0.43099 18.1426 0.804688 18.1426C1.05078 18.1426 1.32422 18.2793 1.625 18.5527C1.92578 18.8262 2.26302 19.0677 2.63672 19.2773C3.01042 19.4779 3.41602 19.651 3.85352 19.7969C4.75586 20.0977 5.58984 20.248 6.35547 20.248C7.12109 20.248 7.70898 20.1979 8.11914 20.0977C8.53841 19.9974 8.88932 19.8607 9.17188 19.6875C9.77344 19.3138 10.0742 18.8353 10.0742 18.252C10.0742 17.7142 9.81445 17.1719 9.29492 16.625C8.85742 16.1602 8.23763 15.6042 7.43555 14.957L5.09766 13.125C2.75521 11.3203 1.37435 9.67057 0.955078 8.17578C0.809245 7.65625 0.736328 7.07747 0.736328 6.43945C0.736328 5.80143 0.877604 5.17253 1.16016 4.55273C1.45182 3.93294 1.88021 3.39062 2.44531 2.92578C3.65755 1.91406 5.30729 1.4082 7.39453 1.4082C8.46094 1.4082 9.41797 1.56771 10.2656 1.88672C11.1133 2.19661 11.6921 2.47461 12.002 2.7207C12.3118 2.9668 12.4668 3.1901 12.4668 3.39062C12.4668 3.8099 12.2936 4.01953 11.9473 4.01953C11.7467 4.01953 11.5326 3.91927 11.3047 3.71875C11.0768 3.51823 10.8216 3.34505 10.5391 3.19922C10.2656 3.04427 9.95117 2.90755 9.5957 2.78906C8.83008 2.53385 8.07812 2.40625 7.33984 2.40625C5.98177 2.40625 5.30273 2.85286 5.30273 3.74609C5.30273 4.11979 5.42578 4.46615 5.67188 4.78516C6.10938 5.34115 6.96159 6.13867 8.22852 7.17773C9.50456 8.20768 10.5254 9.11003 11.291 9.88477C12.0658 10.6595 12.6536 11.3568 13.0547 11.9766C13.6927 12.9518 14.0117 13.9681 14.0117 15.0254C14.0117 16.0736 13.8249 16.9668 13.4512 17.7051C13.0866 18.4342 12.5716 19.0632 11.9062 19.5918C10.5026 20.7038 8.76172 21.2598 6.68359 21.2598C4.60547 21.2598 2.85091 20.8451 1.41992 20.0156ZM31.7305 2.00977C31.7305 2.42904 31.2884 2.63867 30.4043 2.63867H27.2324V21H20.2324V2.63867H18.1816C17.4798 2.63867 16.9967 2.67057 16.7324 2.73438C16.3861 2.80729 16.1354 2.84375 15.9805 2.84375C15.5156 2.84375 15.2832 2.66146 15.2832 2.29688C15.2832 1.86849 15.7344 1.6543 16.6367 1.6543H28.832C29.4609 1.6543 29.9258 1.62695 30.2266 1.57227C30.5911 1.50846 30.8646 1.47656 31.0469 1.47656C31.5026 1.47656 31.7305 1.6543 31.7305 2.00977ZM34.4102 1.6543H41.3828V21H34.4102V1.6543ZM60.0312 2.00977C60.0312 2.42904 59.5892 2.63867 58.7051 2.63867H55.5332V21H48.5332V2.63867H46.4824C45.7806 2.63867 45.2975 2.67057 45.0332 2.73438C44.6868 2.80729 44.4362 2.84375 44.2812 2.84375C43.8164 2.84375 43.584 2.66146 43.584 2.29688C43.584 1.86849 44.0352 1.6543 44.9375 1.6543H57.1328C57.7617 1.6543 58.2266 1.62695 58.5273 1.57227C58.8919 1.50846 59.1654 1.47656 59.3477 1.47656C59.8034 1.47656 60.0312 1.6543 60.0312 2.00977ZM78.625 17.7598C78.9987 17.7598 79.1855 17.9694 79.1855 18.3887C79.1855 18.735 78.9212 19.0814 78.3926 19.4277C77.4082 20.0749 76.5788 20.4987 75.9043 20.6992C74.6374 21.0729 73.3066 21.2598 71.9121 21.2598C70.5176 21.2598 69.1732 21.0137 67.8789 20.5215C66.5938 20.0202 65.4954 19.3229 64.584 18.4297C62.679 16.5521 61.7266 14.1276 61.7266 11.1562C61.7266 9.72526 61.9954 8.41276 62.5332 7.21875C63.071 6.01562 63.8138 4.98568 64.7617 4.12891C66.7669 2.3151 69.2871 1.4082 72.3223 1.4082C74.0267 1.4082 75.526 1.69987 76.8203 2.2832C78.1966 2.89388 78.8848 3.41341 78.8848 3.8418C78.8848 4.01497 78.8255 4.16536 78.707 4.29297C78.5977 4.42057 78.4701 4.48438 78.3242 4.48438C78.0326 4.48438 77.7682 4.35677 77.5312 4.10156C77.2943 3.83724 76.9707 3.60026 76.5605 3.39062C76.1595 3.18099 75.7174 2.9987 75.2344 2.84375C74.25 2.54297 73.3522 2.39258 72.541 2.39258C71.7389 2.39258 71.0736 2.44727 70.5449 2.55664V20.084C71.1829 20.1934 71.748 20.248 72.2402 20.248C72.7324 20.248 73.2337 20.2161 73.7441 20.1523C74.2546 20.0885 74.7559 19.9837 75.248 19.8379C76.3509 19.5098 77.1803 19.0267 77.7363 18.3887C77.9368 18.1517 78.0964 17.9876 78.2148 17.8965C78.3333 17.8053 78.4701 17.7598 78.625 17.7598ZM97.4922 19.0176L97.5332 20.4121C97.5332 20.6491 97.4648 20.8314 97.3281 20.959C97.1914 21.0866 97.0319 21.1504 96.8496 21.1504C96.6764 21.1504 96.5352 21.0911 96.4258 20.9727C96.3255 20.8542 96.2754 20.7038 96.2754 20.5215C96.2754 20.3392 96.2982 20.1341 96.3438 19.9062C96.4076 19.6237 96.4395 18.9173 96.4395 17.7871V7.80664H89.5625V21H82.5762V1.6543H89.5625V6.80859C91.5312 6.80859 93.099 6.80859 94.2656 6.80859C95.4414 6.80859 96.166 6.80404 96.4395 6.79492V4.41602C96.4395 3.62305 96.4258 3.10807 96.3984 2.87109L96.3438 2.46094C96.3346 2.33333 96.3301 2.22396 96.3301 2.13281C96.3301 1.71354 96.5215 1.50391 96.9043 1.50391C97.041 1.50391 97.1823 1.55859 97.3281 1.66797C97.474 1.77734 97.5469 1.95964 97.5469 2.21484L97.4922 3.96484V6.74023L98.3535 6.61719C98.5176 6.61719 98.6543 6.66732 98.7637 6.76758C98.873 6.85872 98.9277 6.98177 98.9277 7.13672C98.9277 7.49219 98.6452 7.69271 98.0801 7.73828C97.9798 7.75651 97.8796 7.77018 97.7793 7.7793C97.6882 7.7793 97.5924 7.78385 97.4922 7.79297V19.0176ZM117.85 15.3262L119.066 15.3809C120.835 15.3809 122.293 14.7975 123.441 13.6309C124.608 12.4551 125.219 10.9329 125.273 9.06445C125.374 6.18424 123.988 4.23828 121.117 3.22656C120.042 2.84375 118.643 2.65234 116.92 2.65234H115.771V21H108.799V1.6543H114.035C116.861 1.6543 118.565 1.69531 119.148 1.77734C119.732 1.85938 120.338 1.96419 120.967 2.0918C121.605 2.2194 122.288 2.4974 123.018 2.92578C123.756 3.35417 124.38 3.86458 124.891 4.45703C125.921 5.66016 126.417 7.07292 126.381 8.69531C126.326 10.7643 125.72 12.487 124.562 13.8633C123.387 15.2487 121.764 16.1055 119.695 16.4336C119.094 16.5156 118.62 16.5566 118.273 16.5566C117.453 16.5566 117.043 16.3333 117.043 15.8867C117.043 15.7227 117.116 15.5905 117.262 15.4902C117.408 15.3809 117.604 15.3262 117.85 15.3262ZM141.27 19.7559C141.753 19.7559 141.994 19.9609 141.994 20.3711C141.994 20.5352 141.894 20.681 141.693 20.8086C141.502 20.9362 141.156 21 140.654 21H129.553V1.6543H136.525V20.0977H139.082C139.656 20.0977 140.148 20.043 140.559 19.9336C140.978 19.8151 141.215 19.7559 141.27 19.7559ZM156.609 19.8242C157.074 19.8242 157.307 20.0065 157.307 20.3711C157.307 20.5352 157.206 20.681 157.006 20.8086C156.805 20.9362 156.459 21 155.967 21H144.387V1.6543C147.978 1.6543 151.569 1.6543 155.16 1.6543L156.281 1.61328C156.965 1.61328 157.307 1.8138 157.307 2.21484C157.307 2.36979 157.247 2.51562 157.129 2.65234C157.02 2.77995 156.892 2.84375 156.746 2.84375C156.509 2.84375 156.258 2.81641 155.994 2.76172C155.602 2.67969 155.064 2.63867 154.381 2.63867H151.359V6.80859H153.848C153.848 6.80859 154.408 6.78581 155.529 6.74023C155.73 6.74023 155.898 6.79036 156.035 6.89062C156.181 6.98177 156.254 7.11393 156.254 7.28711C156.254 7.66992 155.999 7.86133 155.488 7.86133L154.9 7.84766C154.6 7.82031 154.349 7.80664 154.148 7.80664H151.359V20.002H154.381C155.055 20.002 155.534 19.9746 155.816 19.9199C156.154 19.8561 156.418 19.8242 156.609 19.8242ZM164.389 18.5664C162.721 18.5664 161.581 18.5527 160.971 18.5254L160.574 19.4688C160.456 19.7331 160.346 20.0111 160.246 20.3027C160.036 20.8678 159.745 21.1504 159.371 21.1504C159.198 21.1504 159.057 21.0957 158.947 20.9863C158.838 20.877 158.783 20.763 158.783 20.6445C158.783 20.444 158.87 20.2207 159.043 19.9746C159.316 19.5918 159.585 19.0905 159.85 18.4707C159.066 18.3978 158.674 18.1699 158.674 17.7871C158.674 17.4043 158.897 17.2129 159.344 17.2129C159.617 17.2129 159.936 17.2585 160.301 17.3496L167.123 0.779297L176.475 21H169.352L168.217 18.5664H164.389ZM161.408 17.459C162.283 17.5319 163.067 17.5684 163.76 17.5684H167.766L164.348 10.1992L161.408 17.459ZM179.51 20.0156C179.191 19.8333 178.913 19.6419 178.676 19.4414C178.448 19.2409 178.334 19.0267 178.334 18.7988C178.334 18.3613 178.521 18.1426 178.895 18.1426C179.141 18.1426 179.414 18.2793 179.715 18.5527C180.016 18.8262 180.353 19.0677 180.727 19.2773C181.1 19.4779 181.506 19.651 181.943 19.7969C182.846 20.0977 183.68 20.248 184.445 20.248C185.211 20.248 185.799 20.1979 186.209 20.0977C186.628 19.9974 186.979 19.8607 187.262 19.6875C187.863 19.3138 188.164 18.8353 188.164 18.252C188.164 17.7142 187.904 17.1719 187.385 16.625C186.947 16.1602 186.327 15.6042 185.525 14.957L183.188 13.125C180.845 11.3203 179.464 9.67057 179.045 8.17578C178.899 7.65625 178.826 7.07747 178.826 6.43945C178.826 5.80143 178.967 5.17253 179.25 4.55273C179.542 3.93294 179.97 3.39062 180.535 2.92578C181.747 1.91406 183.397 1.4082 185.484 1.4082C186.551 1.4082 187.508 1.56771 188.355 1.88672C189.203 2.19661 189.782 2.47461 190.092 2.7207C190.402 2.9668 190.557 3.1901 190.557 3.39062C190.557 3.8099 190.383 4.01953 190.037 4.01953C189.837 4.01953 189.622 3.91927 189.395 3.71875C189.167 3.51823 188.911 3.34505 188.629 3.19922C188.355 3.04427 188.041 2.90755 187.686 2.78906C186.92 2.53385 186.168 2.40625 185.43 2.40625C184.072 2.40625 183.393 2.85286 183.393 3.74609C183.393 4.11979 183.516 4.46615 183.762 4.78516C184.199 5.34115 185.051 6.13867 186.318 7.17773C187.594 8.20768 188.615 9.11003 189.381 9.88477C190.156 10.6595 190.743 11.3568 191.145 11.9766C191.783 12.9518 192.102 13.9681 192.102 15.0254C192.102 16.0736 191.915 16.9668 191.541 17.7051C191.176 18.4342 190.661 19.0632 189.996 19.5918C188.592 20.7038 186.852 21.2598 184.773 21.2598C182.695 21.2598 180.941 20.8451 179.51 20.0156ZM207.77 19.8242C208.234 19.8242 208.467 20.0065 208.467 20.3711C208.467 20.5352 208.367 20.681 208.166 20.8086C207.965 20.9362 207.619 21 207.127 21H195.547V1.6543C199.138 1.6543 202.729 1.6543 206.32 1.6543L207.441 1.61328C208.125 1.61328 208.467 1.8138 208.467 2.21484C208.467 2.36979 208.408 2.51562 208.289 2.65234C208.18 2.77995 208.052 2.84375 207.906 2.84375C207.669 2.84375 207.419 2.81641 207.154 2.76172C206.762 2.67969 206.225 2.63867 205.541 2.63867H202.52V6.80859H205.008C205.008 6.80859 205.568 6.78581 206.689 6.74023C206.89 6.74023 207.059 6.79036 207.195 6.89062C207.341 6.98177 207.414 7.11393 207.414 7.28711C207.414 7.66992 207.159 7.86133 206.648 7.86133L206.061 7.84766C205.76 7.82031 205.509 7.80664 205.309 7.80664H202.52V20.002H205.541C206.215 20.002 206.694 19.9746 206.977 19.9199C207.314 19.8561 207.578 19.8242 207.77 19.8242Z" fill="black"/>
</svg>
