<svg width="24" height="24" viewBox="0 0 24 24" fill="none" xmlns="http://www.w3.org/2000/svg">
<path fill-rule="evenodd" clip-rule="evenodd" d="M15.6728 2L8.29014 2.00391C5.09194 2.02396 3 4.23742 3 7.50439V16.4956C3 19.7009 5.00878 21.8911 8.09288 21.9961L8.34088 22L15.7088 21.9971C18.9071 21.977 21 19.7626 21 16.4956V7.50439C21 4.2191 18.8887 2 15.6728 2ZM8.29694 4.00389L15.6734 4C17.7612 4 19 5.30201 19 7.50439V16.4956C19 18.6847 17.7719 19.9841 15.7021 19.9971L8.32579 20C6.23808 20 5 18.6983 5 16.4956V7.50439C5 5.31532 6.22716 4.01687 8.29694 4.00389Z" fill="white"/>
<g opacity="0.5">
<path d="M16 15C16.5523 15 17 15.4477 17 16C17 16.5523 16.5523 17 16 17H8C7.44772 17 7 16.5523 7 16C7 15.4477 7.44772 15 8 15H16ZM16 11C16.5523 11 17 11.4477 17 12C17 12.5523 16.5523 13 16 13H8C7.44772 13 7 12.5523 7 12C7 11.4477 7.44772 11 8 11H16ZM10 7C10.5523 7 11 7.44772 11 8C11 8.55228 10.5523 9 10 9H8C7.44772 9 7 8.55228 7 8C7 7.44772 7.44772 7 8 7H10Z" fill="white"/>
</g>
</svg>
