<svg width="32" height="24" viewBox="0 0 32 24" fill="none" xmlns="http://www.w3.org/2000/svg">
<path d="M12.4308 22.2133L12.4309 22.2134L12.438 22.2061L21.4314 12.9028L30.4218 3.6026C30.6675 3.35457 30.7818 3.03369 30.7146 2.6976C30.6571 2.41025 30.4827 2.19818 30.3552 2.07069C30.2187 1.93417 30.0694 1.8293 29.964 1.7622C29.9093 1.72741 29.8618 1.69984 29.8268 1.68042C29.8157 1.67425 29.8057 1.66884 29.7972 1.66424C29.7925 1.66126 29.7874 1.6581 29.782 1.65477C29.7544 1.63779 29.7171 1.616 29.6717 1.5924C29.5829 1.54623 29.4531 1.48778 29.2974 1.44757C28.9875 1.36752 28.4827 1.34465 28.0692 1.75819L28.0662 1.76121L11.2851 18.7822L4.169 11.6661C3.52416 11.0212 2.52847 11.0212 1.88363 11.6661C1.23879 12.3109 1.23879 13.3066 1.88363 13.9515L10.1455 22.2133C10.4597 22.5275 10.8674 22.6969 11.2882 22.6969C11.7089 22.6969 12.1166 22.5275 12.4308 22.2133Z" fill="#000" stroke="#000" stroke-width="1.2"/>
</svg>
