<svg width="19" height="19" viewBox="0 0 19 19" fill="none" xmlns="http://www.w3.org/2000/svg">
<path fill-rule="evenodd" clip-rule="evenodd" d="M3.10215 1.05581C2.53006 0.610993 1.70285 0.651432 1.17713 1.17713C0.607624 1.74666 0.607624 2.67001 1.17713 3.23954L7.43763 9.5L1.17713 15.7605L1.05581 15.8979C0.610993 16.47 0.651432 17.2971 1.17713 17.8229C1.74666 18.3923 2.67001 18.3923 3.23954 17.8229L9.5 11.5624L15.7605 17.8229L15.8979 17.9442C16.47 18.389 17.2971 18.3486 17.8229 17.8229C18.3923 17.2534 18.3923 16.33 17.8229 15.7605L11.5624 9.5L17.8229 3.23954L17.9442 3.10215C18.389 2.53006 18.3486 1.70285 17.8229 1.17713C17.2534 0.607624 16.33 0.607624 15.7605 1.17713L9.5 7.43763L3.23954 1.17713L3.10215 1.05581Z" fill="#D30105"/>
</svg>
