<svg width="24" height="24" viewBox="0 0 24 24" fill="none" xmlns="http://www.w3.org/2000/svg">
<path fill-rule="evenodd" clip-rule="evenodd" d="M18.401 3.59458C16.3501 1.88549 13.3182 2.08909 11.5143 4.05707L4.14387 12.0975C3.29857 13.0196 2.82964 14.2252 2.82964 15.4761L2.82964 17.9202C2.82964 19.577 4.17279 20.9202 5.82964 20.9202L7.96664 20.9202C9.4367 20.9202 10.8323 20.2733 11.7823 19.1514L19.0939 10.517C20.7707 8.50485 20.5515 5.54077 18.6336 3.79462L18.401 3.59458ZM17.5575 9.23666L10.256 17.8589C9.68603 18.532 8.84868 18.9202 7.96664 18.9202L5.82964 18.9202C5.27736 18.9202 4.82964 18.4725 4.82964 17.9202L4.82964 15.4761C4.82964 14.7255 5.111 14.0022 5.61818 13.4489L12.9886 5.40851C14.071 4.22773 15.89 4.10557 17.1206 5.13102L17.1895 5.18841C18.409 6.20468 18.5737 8.01714 17.5575 9.23666Z" fill="#FFF"/>
<g opacity="0.5">
<rect x="14" y="19" width="8" height="2" rx="1" fill="#FFF"/>
</g>
</svg>
