<svg width="24" height="24" viewBox="0 0 24 24" fill="none" xmlns="http://www.w3.org/2000/svg">
<path fill-rule="evenodd" clip-rule="evenodd" d="M11 2C11.5523 2 12 2.44772 12 3C12 3.51284 11.614 3.93551 11.1166 3.99327L11 4H7.78221C5.53243 4 4.09208 5.46979 4.00426 7.79863L4 8.02667V15.9733C4 18.3604 5.36512 19.9015 7.56658 19.9954L7.78221 20H16.2168C18.4725 20 19.9082 18.5337 19.9958 16.2017L20 15.9733V13C20 12.4477 20.4477 12 21 12C21.5128 12 21.9355 12.386 21.9933 12.8834L22 13V15.9733C22 19.4311 19.7872 21.8863 16.4514 21.9962L16.2168 22H7.78221C4.39554 22 2.1059 19.6231 2.00358 16.2129L2 15.9733V8.02667C2 4.5721 4.21828 2.1138 7.54811 2.00384L7.78221 2H11Z" fill="white"/>
<g opacity="0.5">
<path fill-rule="evenodd" clip-rule="evenodd" d="M20.0495 4.72073L19.0726 3.74381C19.0256 3.69682 18.9771 3.65141 18.9271 3.60765C17.6803 2.51644 15.785 2.64255 14.6938 3.88932L10.0876 9.15214C9.2912 10.0621 8.8522 11.2302 8.8522 12.4395L8.8522 12.9395C8.8522 14.044 9.74763 14.9395 10.8522 14.9395H11.3531C12.5629 14.9395 13.7316 14.5004 14.6421 13.7037L19.9037 9.09979C19.9538 9.05595 20.0024 9.01045 20.0495 8.96338C21.2211 7.7918 21.2211 5.89231 20.0495 4.72073ZM18.6353 6.13495C19.0258 6.52547 19.0258 7.15864 18.6353 7.54916L18.5867 7.59463L13.3251 12.1985C12.7792 12.6762 12.0785 12.9395 11.3531 12.9395H10.8522L10.8522 12.4395C10.8522 11.7148 11.1153 11.0147 11.5926 10.4693L16.1988 5.20653C16.5625 4.79094 17.1943 4.7489 17.6099 5.11264L17.6584 5.15802L18.6353 6.13495Z" fill="white"/>
</g>
</svg>
