<svg width="25" height="25" viewBox="0 0 25 25" fill="none" xmlns="http://www.w3.org/2000/svg">
<g clip-path="url(#clip0_77_269)">
<mask id="mask0_77_269" style="mask-type:luminance" maskUnits="userSpaceOnUse" x="0" y="0" width="25" height="25">
<path d="M25 0H0V25H25V0Z" fill="white"/>
</mask>
<g mask="url(#mask0_77_269)">
<path d="M12.4998 5.20833C14.1839 5.20833 15.7303 5.78492 16.9648 6.74381L20.7534 3.12926C18.5506 1.18745 15.6671 0 12.4998 0C7.70025 0 3.53801 2.70824 1.44336 6.67694L5.65631 10.0029C6.67688 7.20769 9.35138 5.20833 12.4998 5.20833Z" fill="#F44336"/>
<path d="M24.8918 14.0644C24.9568 13.5523 25 13.0299 25 12.5C25 11.6064 24.9024 10.7363 24.7242 9.89587H12.5V15.1042H19.2564C18.7099 16.5248 17.7367 17.7269 16.4979 18.5619L20.7265 21.9003C22.9681 19.9327 24.5021 17.1775 24.8918 14.0644Z" fill="#2196F3"/>
<path d="M5.20833 12.5C5.20833 11.6214 5.37173 10.7829 5.65649 10.0029L1.44354 6.67694C0.525348 8.41669 0 10.396 0 12.5C0 14.5805 0.515684 16.5379 1.41481 18.2635L5.6331 14.9333C5.36296 14.1713 5.20833 13.3546 5.20833 12.5Z" fill="#FFC107"/>
<path d="M12.4993 19.7916C9.32683 19.7916 6.63514 17.7619 5.63236 14.9332L1.41406 18.2635C3.49847 22.264 7.67614 25 12.4993 25C15.6532 25 18.5292 23.8283 20.7258 21.9002L16.4972 18.5619C15.3547 19.3322 13.9872 19.7916 12.4993 19.7916Z" fill="#00B060"/>
<path opacity="0.1" d="M12.4993 24.7396C8.82045 24.7396 5.51256 23.2217 3.17383 20.8035C5.46322 23.3727 8.78727 25 12.4993 25C16.177 25 19.4735 23.4048 21.7578 20.8758C19.426 23.2548 16.1431 24.7396 12.4993 24.7396Z" fill="black"/>
<path opacity="0.1" d="M12.5 14.8438V15.1042H19.2564L19.362 14.8438H12.5Z" fill="black"/>
<path d="M24.9942 12.6531C24.9951 12.6018 25 12.5514 25 12.5C25 12.4854 24.9977 12.4713 24.9976 12.4568C24.997 12.5224 24.9936 12.5872 24.9942 12.6531Z" fill="#E6E6E6"/>
<path opacity="0.2" d="M12.5 9.89587V10.1562H24.7766C24.7603 10.0703 24.7423 9.98119 24.7242 9.89587H12.5Z" fill="white"/>
<path d="M24.7242 9.89581H12.5V15.1042H19.2564C18.2058 17.835 15.6012 19.7917 12.5 19.7917C8.47294 19.7917 5.20833 16.5271 5.20833 12.5C5.20833 8.47287 8.47294 5.20833 12.5 5.20833C13.9602 5.20833 15.3061 5.65694 16.4464 6.39656C16.6209 6.51 16.8009 6.61644 16.9649 6.74381L20.7536 3.12926L20.6681 3.06352C18.476 1.16361 15.6287 0 12.5 0C5.59641 0 0 5.59641 0 12.5C0 19.4035 5.59641 25 12.5 25C18.8726 25 24.1203 20.2279 24.8918 14.0644C24.9568 13.5523 25 13.0299 25 12.5C25 11.6064 24.9024 10.7362 24.7242 9.89581Z" fill="url(#paint0_linear_77_269)"/>
<path opacity="0.1" d="M16.447 6.13614C15.3068 5.39653 13.9609 4.94793 12.5007 4.94793C8.4736 4.94793 5.20898 8.2125 5.20898 12.2396C5.20898 12.2835 5.20957 12.3179 5.21033 12.3617C5.28059 8.39531 8.51754 5.20834 12.5007 5.20834C13.9609 5.20834 15.3068 5.65695 16.447 6.39656C16.6215 6.51 16.8016 6.6165 16.9655 6.74381L20.7542 3.12927L16.9655 6.48343C16.8016 6.35606 16.6215 6.24957 16.447 6.13614Z" fill="black"/>
<path opacity="0.2" d="M12.5 0.260417C15.599 0.260417 18.4197 1.40457 20.6034 3.2725L20.7536 3.12926L20.639 3.02945C18.4468 1.12954 15.6287 0 12.5 0C5.59641 0 0 5.59641 0 12.5C0 12.5439 0.00610354 12.5863 0.00654856 12.6302C0.0771206 5.78734 5.64035 0.260417 12.5 0.260417Z" fill="white"/>
</g>
</g>
<defs>
<linearGradient id="paint0_linear_77_269" x1="0" y1="12.5" x2="25" y2="12.5" gradientUnits="userSpaceOnUse">
<stop stop-color="white" stop-opacity="0.2"/>
<stop offset="1" stop-color="white" stop-opacity="0"/>
</linearGradient>
<clipPath id="clip0_77_269">
<rect width="25" height="25" rx="5" fill="white"/>
</clipPath>
</defs>
</svg>
