<svg width="36" height="36" viewBox="0 0 36 36" fill="none" xmlns="http://www.w3.org/2000/svg">
<path fill-rule="evenodd" clip-rule="evenodd" d="M18 10.5C13.8579 10.5 10.5 13.8579 10.5 18C10.5 22.1421 13.8579 25.5 18 25.5C22.1421 25.5 25.5 22.1421 25.5 18C25.5 13.8579 22.1421 10.5 18 10.5ZM18 13.5C20.4853 13.5 22.5 15.5147 22.5 18C22.5 20.4853 20.4853 22.5 18 22.5C15.5147 22.5 13.5 20.4853 13.5 18C13.5 15.5147 15.5147 13.5 18 13.5Z" fill="white"/>
<g opacity="0.5">
<path d="M21 1.5C28.4558 1.5 34.5 7.54416 34.5 15V21C34.5 28.4558 28.4558 34.5 21 34.5H15C7.54416 34.5 1.5 28.4558 1.5 21V15C1.5 7.54416 7.54416 1.5 15 1.5H21ZM15 4.5C9.20101 4.5 4.5 9.20101 4.5 15V21C4.5 26.799 9.20101 31.5 15 31.5H21C26.799 31.5 31.5 26.799 31.5 21V15C31.5 9.20101 26.799 4.5 21 4.5H15ZM25.5 9C26.3279 9.00023 27 9.67232 27 10.5C27 11.3277 26.3279 11.9998 25.5 12C24.6719 12 24 11.3278 24 10.5C24 9.67218 24.6719 9 25.5 9Z" fill="white"/>
</g>
</svg>
