<svg width="24" height="24" viewBox="0 0 24 24" fill="none" xmlns="http://www.w3.org/2000/svg">
<path fill-rule="evenodd" clip-rule="evenodd" d="M16 8H8C5.23858 8 3 10.2386 3 13V17C3 19.7614 5.23858 22 8 22H16C18.7614 22 21 19.7614 21 17V13C21 10.2386 18.7614 8 16 8ZM8 10H16C17.6569 10 19 11.3431 19 13V17C19 18.6569 17.6569 20 16 20H8C6.34315 20 5 18.6569 5 17V13C5 11.3431 6.34315 10 8 10ZM12 13C11.4477 13 11 13.4477 11 14V16C11 16.5523 11.4477 17 12 17C12.5523 17 13 16.5523 13 16V14C13 13.4477 12.5523 13 12 13Z" fill="#FFF"/>
<g opacity="0.5">
<path fill-rule="evenodd" clip-rule="evenodd" d="M12 2.00003C13.534 2.00003 14.8427 2.56547 15.7514 3.6001C16.1158 4.01507 16.0749 4.64691 15.6599 5.01136C15.2449 5.3758 14.6131 5.33484 14.2486 4.91988C13.7283 4.32739 12.9706 4.00003 12 4.00003C10.2328 4.00003 9.09149 5.15193 9.00522 6.86608L9 7.05883V8.99999C9 9.55228 8.55228 9.99999 8 9.99999C7.48716 9.99999 7.06449 9.61395 7.00673 9.11661L7 8.99999L7.00001 7.05454C7.01241 4.15924 9.03349 2.00003 12 2.00003Z" fill="#FFF"/>
</g>
</svg>
