<svg width="24" height="24" viewBox="0 0 24 24" fill="none" xmlns="http://www.w3.org/2000/svg">
<path fill-rule="evenodd" clip-rule="evenodd" d="M12 3C8.13401 3 5 6.13401 5 10V14.0027C5 17.8672 8.1328 21 11.9973 21C15.862 21 18.9953 17.8677 18.9966 14.003L18.998 9.99814C18.998 6.1331 15.8649 3 12 3ZM12 5C14.7603 5 16.998 7.23767 16.998 9.99983L16.9966 14.0024C16.9957 16.7628 14.7577 19 11.9973 19C9.23737 19 7 16.7626 7 14.0027V10C7 7.23858 9.23858 5 12 5Z" fill="#020212"/>
<g opacity="0.5">
<path d="M13 8C13 7.44772 12.5523 7 12 7C11.4477 7 11 7.44772 11 8V10C11 10.5523 11.4477 11 12 11C12.5523 11 13 10.5523 13 10V8Z" fill="#020212"/>
</g>
</svg>
