<svg width="16" height="12" viewBox="0 0 16 12" fill="none" xmlns="http://www.w3.org/2000/svg">
<path d="M6.26465 10.7729L6.26809 10.7695L10.5604 6.40103L14.8512 2.03397C14.9685 1.91751 15.023 1.76683 14.9909 1.60901C14.9635 1.47409 14.8803 1.3745 14.8194 1.31464C14.7543 1.25053 14.683 1.20129 14.6327 1.16978C14.6066 1.15345 14.5839 1.1405 14.5672 1.13138C14.5619 1.12848 14.5571 1.12594 14.5531 1.12378C14.5508 1.12239 14.5484 1.1209 14.5458 1.11934C14.5327 1.11136 14.5149 1.10113 14.4932 1.09005C14.4508 1.06837 14.3889 1.04092 14.3146 1.02204C14.1666 0.984455 13.9257 0.973716 13.7284 1.1679L13.7269 1.16932L5.71785 9.16179L2.32156 5.82031C2.01379 5.51749 1.53858 5.51749 1.23082 5.82031C0.92306 6.12309 0.92306 6.59064 1.23082 6.89346L5.17395 10.7729C5.32391 10.9205 5.51849 11 5.71933 11C5.92011 11 6.1147 10.9205 6.26465 10.7729Z" fill="white" stroke="white" stroke-width="1.2"/>
</svg>
