<svg width="11" height="8" viewBox="0 0 11 8" fill="none" xmlns="http://www.w3.org/2000/svg">
<g clip-path="url(#clip0_170_406)">
<path d="M4.27231 7.40445L4.27478 7.40205L7.36626 4.30095L10.4567 1.20088C10.5412 1.1182 10.5805 1.01124 10.5574 0.899213C10.5376 0.80343 10.4776 0.73274 10.4338 0.690243C10.3869 0.644737 10.3356 0.60978 10.2993 0.587413C10.2805 0.575817 10.2642 0.566627 10.2522 0.560153C10.2484 0.558097 10.2449 0.556293 10.242 0.55476C10.2404 0.553767 10.2386 0.552713 10.2368 0.551603C10.2273 0.545943 10.2145 0.53868 10.1989 0.530813C10.1683 0.515423 10.1237 0.49594 10.0702 0.482537C9.96367 0.455853 9.79015 0.44823 9.64801 0.586077L9.64698 0.587083L3.87847 6.26075L1.43231 3.88871C1.21065 3.67375 0.86838 3.67375 0.646717 3.88871C0.425053 4.10365 0.425053 4.43555 0.646717 4.65051L3.48673 7.40445C3.59474 7.50918 3.73489 7.56565 3.87954 7.56565C4.02415 7.56565 4.1643 7.50918 4.27231 7.40445Z" fill="white" stroke="white" stroke-width="1.2"/>
</g>
<defs>
<clipPath id="clip0_170_406">
<rect width="11" height="8" fill="white"/>
</clipPath>
</defs>
</svg>
