<svg width="23" height="19" viewBox="0 0 23 19" fill="none" xmlns="http://www.w3.org/2000/svg">
<path d="M8.89698 17.614L8.90214 17.6082L15.3405 10.1817L21.7768 2.75775C21.9527 2.55976 22.0345 2.30361 21.9864 2.03533C21.9452 1.80594 21.8204 1.63666 21.7291 1.53489C21.6314 1.42591 21.5245 1.34219 21.449 1.28863C21.4099 1.26086 21.3759 1.23885 21.3508 1.22335C21.3429 1.21842 21.3357 1.21411 21.3296 1.21043C21.3263 1.20805 21.3226 1.20553 21.3188 1.20287C21.299 1.18932 21.2723 1.17193 21.2398 1.15309C21.1762 1.11623 21.0833 1.06957 20.9718 1.03747C20.75 0.973573 20.3886 0.955317 20.0926 1.28543L20.0904 1.28784L8.07677 14.875L2.98234 9.19453C2.52069 8.67974 1.80787 8.67974 1.34623 9.19453C0.884589 9.70925 0.884589 10.5041 1.34623 11.0189L7.26093 17.614C7.48587 17.8648 7.77774 18 8.07899 18C8.38017 18 8.67204 17.8648 8.89698 17.614Z" fill="#01D347" stroke="#01D347" stroke-width="1.2"/>
</svg>
