<svg width="24" height="24" viewBox="0 0 24 24" fill="none" xmlns="http://www.w3.org/2000/svg">
<path fill-rule="evenodd" clip-rule="evenodd" d="M12.0364 2H11.9634C8.38033 2 5.07611 4.43258 4.74978 7.71108C4.73083 7.91522 4.71734 8.12158 4.70807 8.34L4.69491 8.78596L4.68999 9.463L4.71352 9.37545C4.58574 9.95509 4.28953 10.4959 3.85289 10.9412L3.7506 11.0637C3.30167 11.6982 3.04239 12.4363 3.00215 13.2006L3.00077 13.4472C2.97775 14.4452 3.34679 15.4366 4.03598 16.2183C4.95955 17.1265 6.12966 17.6562 7.38159 17.7681C10.4444 18.0776 13.5461 18.0776 16.6204 17.7671C17.8611 17.6609 19.0353 17.1294 19.9071 16.2685C20.5936 15.5052 20.966 14.5944 20.9978 13.6493L20.999 13.2531C20.9611 12.439 20.6997 11.6987 20.2447 11.0659L20.1507 10.9536L19.9933 10.7801C19.6918 10.4249 19.471 10.0204 19.3423 9.5903L19.3 9.429L19.29 9.03587L19.2897 8.36062L19.2836 8.08476L19.27 7.84006C19.267 7.79981 19.2636 7.75931 19.2597 7.7178C18.922 4.43055 15.6173 2 12.0364 2ZM11.9634 4H12.0364C14.6669 4 17.0471 5.75057 17.2692 7.91235L17.2834 8.12226L17.2897 8.37884L17.2916 9.20733L17.2987 9.44358L17.3126 9.66776L17.3336 9.80825L17.4049 10.0904C17.6161 10.8365 17.9946 11.5306 18.5137 12.127L18.642 12.266L18.621 12.2336C18.8519 12.5547 18.982 12.9233 19.0001 13.301L18.999 13.4388C19.0129 13.9789 18.8236 14.4837 18.4598 14.8895C17.9661 15.3744 17.23 15.7077 16.4346 15.7758C13.4788 16.0743 10.5118 16.0743 7.57121 15.7772C6.76286 15.7048 6.02542 15.371 5.48574 14.8425C5.17647 14.4877 4.9888 13.9835 5.00051 13.47L5.00077 13.2531L5.01953 13.0841C5.05692 12.8551 5.1435 12.6137 5.27564 12.3864L5.35699 12.258L5.28094 12.3415C5.97771 11.6309 6.45743 10.755 6.66663 9.80599L6.69007 9.59072L6.69295 8.92326L6.69665 8.72389C6.70369 8.41769 6.7175 8.15138 6.74059 7.9025C6.95483 5.7503 9.3323 4 11.9634 4Z" fill="#FFF"/>
<g opacity="0.5">
<path fill-rule="evenodd" clip-rule="evenodd" d="M14.3446 19.2447C14.7618 18.8827 15.3933 18.9275 15.7553 19.3446C16.1173 19.7618 16.0725 20.3933 15.6554 20.7553C15.4049 20.9727 15.1203 21.1641 14.8229 21.3188C13.8539 21.8435 12.6498 22.076 11.4581 21.9781C10.2509 21.8788 9.13365 21.4471 8.34075 20.7519C7.92547 20.3878 7.88398 19.756 8.24808 19.3407C8.61217 18.9255 9.24398 18.884 9.65925 19.2481C10.1112 19.6443 10.8222 19.919 11.622 19.9848C12.4374 20.0518 13.2535 19.8942 13.885 19.5525C14.0607 19.461 14.2151 19.3571 14.3446 19.2447Z" fill="#FFF"/>
</g>
</svg>
