<svg width="30" height="30" viewBox="0 0 30 30" fill="none" xmlns="http://www.w3.org/2000/svg">
<path fill-rule="evenodd" clip-rule="evenodd" d="M18.5522 6.49797L6.34334 11.9241C5.57636 12.265 4.96652 12.8831 4.63598 13.6546C3.91219 15.344 4.69497 17.3003 6.38436 18.0241L8.92176 19.1112C9.80714 19.4905 10.5126 20.196 10.8919 21.0814L11.9776 23.6155C12.308 24.3866 12.9175 25.0044 13.6841 25.3452C15.3629 26.0914 17.3287 25.3354 18.075 23.6567L23.5019 11.448C23.933 10.4783 23.933 9.37144 23.502 8.40174C22.6609 6.50918 20.4448 5.65683 18.5522 6.49797ZM21.2175 9.41709C21.3612 9.74032 21.3612 10.1093 21.2175 10.4325L15.7905 22.6412C15.6051 23.0583 15.1167 23.2461 14.6996 23.0607C14.5091 22.976 14.3577 22.8225 14.2756 22.631L13.1899 20.0968C12.5577 18.6212 11.3819 17.4454 9.90629 16.8132L7.36889 15.7261C6.94863 15.5461 6.75391 15.0594 6.93396 14.6391C7.01619 14.4472 7.16789 14.2935 7.35869 14.2087L19.5676 8.7825C20.1534 8.52215 20.8321 8.74853 21.1506 9.28729L21.2175 9.41709Z" fill="white"/>
<g opacity="0.5">
<path fill-rule="evenodd" clip-rule="evenodd" d="M15.3661 12.8661C15.8543 12.378 16.6457 12.378 17.1339 12.8661C17.5845 13.3167 17.6192 14.0258 17.2379 14.5161L17.1339 14.6339L12.1339 19.6339C11.6457 20.122 10.8543 20.122 10.3661 19.6339C9.91551 19.1833 9.88085 18.4742 10.2621 17.9839L10.3661 17.8661L15.3661 12.8661Z" fill="white"/>
</g>
</svg>
