<svg width="24" height="24" viewBox="0 0 24 24" fill="none" xmlns="http://www.w3.org/2000/svg">
<path fill-rule="evenodd" clip-rule="evenodd" d="M6.6786 2.00485L6.63946 2.00227C5.21666 1.93649 3.32805 3.53744 2.60778 4.73234C1.81756 5.8027 1.8027 7.23069 2.47943 8.8507L2.58612 9.09512C4.30365 13.303 10.7119 19.6691 14.9347 21.4259L15.1715 21.5314C16.665 22.1666 18.0372 22.1747 19.1596 21.4655L19.2877 21.379L19.2494 21.4024C20.3745 20.758 22.0497 18.8253 21.9983 17.3706C21.9469 16.7362 21.6613 16.2373 21.2248 15.7905C21.0818 15.6441 20.8914 15.469 20.6716 15.2797L20.322 14.9868C20.2608 14.9368 20.1983 14.8863 20.1348 14.8357L19.7442 14.5311C19.6779 14.4805 19.6111 14.4301 19.5441 14.3802L19.1428 14.0881C18.4783 13.6166 17.854 13.2364 17.5505 13.1728C16.8565 13.0289 16.3925 13.1555 15.6882 13.5409L15.4314 13.686C15.0363 13.9126 14.942 13.9385 14.8261 13.8964C12.5921 12.984 11.0155 11.4079 10.0876 9.1374C10.0738 9.09815 10.0735 9.05484 10.105 8.97175L10.1593 8.85066L10.2514 8.67764L10.3465 8.51064C10.8187 7.68995 10.9837 7.20673 10.827 6.45136C10.7825 6.23825 10.583 5.86866 10.3058 5.43828L10.0508 5.05672C10.0058 4.99139 9.95956 4.92538 9.91244 4.85896L9.62054 4.45785C9.57066 4.39094 9.52031 4.32418 9.46972 4.25785L9.16511 3.86732C9.11446 3.80384 9.06401 3.74136 9.014 3.68014L8.72093 3.33032L8.44902 3.02438C8.36311 2.9312 8.28253 2.84756 8.20906 2.7757C7.76278 2.33975 7.26436 2.05501 6.6786 2.00485ZM6.48456 4.00379L6.52469 4.00099L6.50795 3.99755C6.55614 4.00168 6.6665 4.06473 6.81103 4.20591L6.96976 4.3724L7.1627 4.59237L7.38028 4.8528L7.73184 5.2908L8.08488 5.74656L8.50197 6.30587L8.66594 6.53548L8.78743 6.71436C8.83595 6.78895 8.86494 6.83962 8.869 6.85906C8.88363 6.92959 8.8746 7.00136 8.81339 7.13727L8.73373 7.29687L8.57919 7.5719C8.08208 8.43815 7.92067 9.0244 8.22156 9.85596C9.3674 12.6619 11.3388 14.6327 14.1071 15.7623C14.9126 16.0554 15.4764 15.9375 16.2452 15.522L16.7234 15.2548C16.9559 15.1322 17.0497 15.1115 17.1424 15.1307L17.1718 15.1429L17.2867 15.2123L17.4654 15.3338L17.8248 15.5928L18.4056 16.0309L19.007 16.5046L19.4085 16.837L19.6281 17.0297C19.6931 17.0887 19.7492 17.1421 19.7941 17.1881C19.9354 17.3327 19.9986 17.4431 20.0024 17.4884C20.0167 17.9256 18.9331 19.201 18.3523 19.605L18.17 19.7217C17.6536 20.0916 16.94 20.1083 15.9435 19.6861L15.7404 19.5958C13.9745 18.8607 11.7171 17.1603 9.65834 15.1751L9.1023 14.6271C7.08536 12.5958 5.32981 10.3416 4.52578 8.54499L4.4221 8.3029C3.92812 7.21551 3.886 6.46731 4.20242 5.94224L4.27046 5.84017C4.44087 5.56541 4.89462 5.06339 5.3459 4.68085C5.82409 4.27549 6.25541 4.03671 6.48456 4.00379Z" fill="white"/>
</svg>
