<svg width="21" height="21" viewBox="0 0 21 21" fill="none" xmlns="http://www.w3.org/2000/svg">
<path fill-rule="evenodd" clip-rule="evenodd" d="M10.5 1.74997C6.07926 1.74997 2.625 5.20426 2.625 9.62501C2.625 11.9873 4.19792 14.8017 7.28691 18.1444C7.36496 18.2288 7.44631 18.3102 7.53077 18.3882C9.30536 20.0281 12.0732 19.9189 13.7132 18.1443L13.9887 17.843C16.8954 14.6313 18.375 11.9166 18.3751 9.62501C18.3751 5.20427 14.9208 1.74997 10.5 1.74997ZM10.5 3.49997C13.9542 3.49997 16.6251 6.17078 16.6251 9.62501C16.625 11.3793 15.3332 13.7494 12.6942 16.6654L12.4248 16.96C11.4439 18.0213 9.7832 18.0869 8.71846 17.1029C8.66779 17.0561 8.61899 17.0073 8.57216 16.9566C5.7551 13.9082 4.375 11.4389 4.375 9.62501C4.375 6.17075 7.04576 3.49997 10.5 3.49997Z" fill="#FEFEFE"/>
<g opacity="0.5">
<path fill-rule="evenodd" clip-rule="evenodd" d="M10.5 6.125C8.567 6.125 7 7.692 7 9.625C7 11.558 8.567 13.125 10.5 13.125C12.433 13.125 14 11.558 14 9.625C14 7.692 12.433 6.125 10.5 6.125ZM10.5 7.875C11.4665 7.875 12.25 8.6585 12.25 9.625C12.25 10.5915 11.4665 11.375 10.5 11.375C9.53347 11.375 8.75 10.5915 8.75 9.625C8.75 8.6585 9.53347 7.875 10.5 7.875Z" fill="#FEFEFE"/>
</g>
</svg>
