<svg width="21" height="21" viewBox="0 0 21 21" fill="none" xmlns="http://www.w3.org/2000/svg">
<path d="M10.5 12.2499C14.4212 12.2499 16.625 13.3519 16.625 15.7499C16.625 18.1481 14.4212 19.2499 10.5 19.2499C6.57878 19.2499 4.37499 18.1481 4.37499 15.7499C4.37503 13.3519 6.57881 12.25 10.5 12.2499ZM10.5 13.9999C7.42132 13.9999 6.12504 14.6481 6.12499 15.7499C6.12499 16.8518 7.42127 17.4999 10.5 17.4999C13.5787 17.4999 14.875 16.8518 14.875 15.7499C14.8749 14.6481 13.5787 13.9999 10.5 13.9999ZM17.5781 11.3788C17.9341 11.4108 18.2855 11.4696 18.6152 11.5517L18.8584 11.6171C19.7962 11.8557 20.5251 12.329 20.8398 13.1865C21.0534 13.7707 21.0534 14.4376 20.8398 15.0234C20.5275 15.8768 19.8116 16.3435 18.8691 16.5956C18.4024 16.7205 17.9218 16.4432 17.7969 15.9765C17.672 15.5097 17.9501 15.0291 18.417 14.9042C18.8641 14.7846 19.1262 14.6142 19.1963 14.4228C19.2682 14.2252 19.2677 13.9834 19.1963 13.788C19.1252 13.5948 18.8626 13.4246 18.3975 13.3056C18.0804 13.2129 17.7542 13.1508 17.4219 13.121C16.9406 13.0778 16.5858 12.6531 16.6289 12.1718C16.669 11.7251 17.0378 11.3866 17.4756 11.3749L17.5781 11.3788ZM3.42187 11.3788C3.90316 11.3357 4.32789 11.6905 4.37109 12.1718C4.41423 12.6531 4.05944 13.0779 3.57812 13.121C3.32895 13.1434 3.08355 13.1839 2.83007 13.2451L2.57323 13.3134C2.13764 13.4243 1.87469 13.595 1.8037 13.789C1.732 13.9844 1.73217 14.2248 1.80468 14.4228C1.84472 14.5326 2.10648 14.7289 2.65527 14.9277C3.10957 15.0923 3.34421 15.5935 3.17968 16.0478C3.01516 16.5021 2.51385 16.7375 2.05956 16.5732C1.072 16.2155 0.417016 15.7259 0.161125 15.0244C-0.0538226 14.4383 -0.0535943 13.7695 0.161125 13.1855C0.453865 12.3859 1.10827 11.9206 1.93261 11.6747L2.11132 11.6259C2.53853 11.501 2.97689 11.4187 3.42187 11.3788Z" fill="white"/>
<g opacity="0.5">
<path d="M4.375 3.5C4.85825 3.5 5.25 3.89175 5.25 4.375C5.25 4.85825 4.85825 5.25 4.375 5.25C3.40876 5.25 2.625 6.03367 2.625 7C2.625 7.92231 3.33898 8.67816 4.24414 8.74512L4.375 8.75C4.85825 8.75 5.25 9.14175 5.25 9.625C5.25 10.1082 4.85825 10.5 4.375 10.5C2.44231 10.5 0.875 8.93288 0.875 7C0.875 5.06712 2.44231 3.5 4.375 3.5ZM10.5 1.75C12.9258 1.75002 14.875 3.69945 14.875 6.125C14.8748 8.55103 12.9258 10.5 10.5 10.5C8.07426 10.5 6.12522 8.55103 6.125 6.125C6.125 3.69945 8.07429 1.75 10.5 1.75ZM16.625 3.5C18.5577 3.5 20.125 5.06711 20.125 7C20.125 8.93289 18.5577 10.5 16.625 10.5C16.1418 10.5 15.75 10.1082 15.75 9.625C15.75 9.17627 16.0883 8.8064 16.5234 8.75586L16.625 8.75C17.5913 8.75 18.375 7.96635 18.375 7C18.375 6.03365 17.5913 5.25 16.625 5.25C16.1418 5.25 15.75 4.85825 15.75 4.375C15.75 3.89175 16.1418 3.5 16.625 3.5ZM10.5 3.5C9.04074 3.5 7.875 4.666 7.875 6.125C7.87522 7.58455 9.04078 8.75 10.5 8.75C11.9593 8.74998 13.1248 7.58455 13.125 6.125C13.125 4.66599 11.9593 3.50002 10.5 3.5Z" fill="white"/>
</g>
</svg>
