<svg width="21" height="21" viewBox="0 0 21 21" fill="none" xmlns="http://www.w3.org/2000/svg">
<path fill-rule="evenodd" clip-rule="evenodd" d="M14.19 1.75H6.81C3.78241 1.75 1.75 3.9302 1.75 7.02331V13.9766C1.75 17.0725 3.7773 19.25 6.81 19.25H14.19C17.2227 19.25 19.25 17.0725 19.25 13.9766V7.02331C19.25 3.92753 17.2227 1.75 14.19 1.75ZM6.81 3.5H14.19C16.2271 3.5 17.5 4.86718 17.5 7.02331V13.9766C17.5 16.1328 16.2271 17.5 14.19 17.5H6.81C4.77285 17.5 3.5 16.1328 3.5 13.9766V7.02331C3.5 4.87032 4.77743 3.5 6.81 3.5Z" fill="#020212"/>
<g opacity="0.5">
<path fill-rule="evenodd" clip-rule="evenodd" d="M9.625 7C9.625 6.51675 10.0167 6.125 10.5 6.125C10.9833 6.125 11.375 6.51675 11.375 7V14C11.375 14.4833 10.9833 14.875 10.5 14.875C10.0167 14.875 9.625 14.4833 9.625 14V7ZM6.125 12.25C6.125 11.7667 6.51675 11.375 7 11.375C7.48325 11.375 7.875 11.7667 7.875 12.25V14C7.875 14.4833 7.48325 14.875 7 14.875C6.51675 14.875 6.125 14.4833 6.125 14V12.25ZM14 9.625C13.5167 9.625 13.125 10.0167 13.125 10.5V14C13.125 14.4833 13.5167 14.875 14 14.875C14.4833 14.875 14.875 14.4833 14.875 14V10.5C14.875 10.0167 14.4833 9.625 14 9.625Z" fill="#020212"/>
</g>
</svg>
