<svg width="25" height="23" viewBox="0 0 25 23" fill="none" xmlns="http://www.w3.org/2000/svg">
<path d="M13.9742 3.8443L15.7658 7.03717C16.0101 7.48165 16.6616 7.90799 17.2112 7.98963L20.4585 8.47033C22.535 8.77878 23.0236 10.1212 21.5273 11.4456L19.0028 13.695C18.5753 14.076 18.3411 14.8107 18.4735 15.3369L19.1962 18.1216C19.7662 20.3257 18.4531 21.1783 16.2646 20.0264L13.221 18.4209C12.6714 18.1306 11.7654 18.1306 11.2056 18.4209L8.16195 20.0264C5.9836 21.1783 4.66031 20.3167 5.23034 18.1216L5.95307 15.3369C6.08539 14.8107 5.85128 14.076 5.42375 13.695L2.8993 11.4456C1.41314 10.1212 1.89156 8.77878 3.96812 8.47033L7.21529 7.98963C7.7548 7.90799 8.40625 7.48165 8.65055 7.03717L10.4421 3.8443C11.4193 2.1118 13.0073 2.1118 13.9742 3.8443Z" fill="#F1BE48" stroke="#F1BE48" stroke-width="1.5" stroke-linecap="round" stroke-linejoin="round"/>
</svg>
