<svg width="21" height="21" viewBox="0 0 21 21" fill="none" xmlns="http://www.w3.org/2000/svg">
<path fill-rule="evenodd" clip-rule="evenodd" d="M10.5009 12.25C10.1985 12.2498 9.90367 12.2534 9.6165 12.2612L9.05256 12.2824C8.77571 12.2956 8.50682 12.3131 8.24597 12.3347L7.73512 12.3836C4.48543 12.7381 2.625 13.8103 2.625 15.7476C2.625 17.6011 4.23051 18.6519 7.19506 19.0558L7.68766 19.1156L8.20386 19.1644C8.37983 19.1787 8.5597 19.1912 8.74342 19.202L9.30613 19.2287C9.40177 19.2322 9.49846 19.2353 9.59602 19.2379L10.1929 19.2486L10.4999 19.25C10.7065 19.25 10.9093 19.2484 11.1084 19.2449L11.6941 19.2292C11.7898 19.2256 11.8846 19.2217 11.9784 19.2173L12.5297 19.1854C12.7096 19.1729 12.8856 19.1586 13.0577 19.1425L13.5622 19.0885C16.6824 18.7109 18.3745 17.6552 18.3748 15.7502C18.3752 13.6645 16.2272 12.5864 12.4959 12.3178L11.9522 12.2849C11.5826 12.2666 11.1988 12.2556 10.8015 12.2517L10.5009 12.25ZM10.4992 14C14.5272 14.0041 16.625 14.766 16.6248 15.7498C16.6247 16.3094 16.0268 16.7831 14.7987 17.096L14.4481 17.1773C14.0207 17.2674 13.5293 17.3404 12.9726 17.3941L12.4796 17.4354C12.3947 17.4414 12.3085 17.4471 12.221 17.4523L11.6797 17.4787C11.5868 17.4822 11.4926 17.4853 11.397 17.4879L10.8073 17.4987L10.5002 17.5C10.293 17.4999 10.091 17.4981 9.89448 17.4944L9.32118 17.4781C9.22826 17.4746 9.13673 17.4706 9.04661 17.4662L8.5215 17.4345L8.02845 17.393C5.56351 17.154 4.375 16.535 4.375 15.7476C4.375 14.9391 5.79273 14.2781 8.52141 14.0691L9.04836 14.0353C9.5003 14.0117 9.98399 13.9995 10.4992 14Z" fill="white"/>
<g opacity="0.5">
<path fill-rule="evenodd" clip-rule="evenodd" d="M10.5 1.75C8.08376 1.75 6.125 3.70876 6.125 6.125C6.125 8.54124 8.08376 10.5 10.5 10.5C12.9162 10.5 14.875 8.54124 14.875 6.125C14.875 3.70876 12.9162 1.75 10.5 1.75ZM10.5 3.5C11.9498 3.5 13.125 4.67526 13.125 6.125C13.125 7.57474 11.9498 8.75 10.5 8.75C9.05021 8.75 7.875 7.57474 7.875 6.125C7.875 4.67526 9.05021 3.5 10.5 3.5Z" fill="white"/>
</g>
</svg>
