<svg width="24" height="24" viewBox="0 0 24 24" fill="none" xmlns="http://www.w3.org/2000/svg">
<path fill-rule="evenodd" clip-rule="evenodd" d="M19.998 14H4C2.89543 14 2 14.8954 2 16V17C2 18.6569 3.34315 20 5 20H18.9919C20.6486 20 21.9926 18.6587 21.9959 17.002L21.998 16.001C21.998 14.8954 21.1025 14 19.998 14ZM4 16H19.998L19.9959 16.998C19.9948 17.5517 19.5456 18 18.9919 18H5C4.44772 18 4 17.5523 4 17V16Z" fill="#ffffff"/>
<g opacity="0.5">
<path fill-rule="evenodd" clip-rule="evenodd" d="M14.9989 4.00001L9 4.00001C6.23858 4.00001 4 6.23858 4 9.00001V14C4 15.1046 4.89543 16 6 16H17.9937L18.1429 15.9944C19.1775 15.9171 19.9925 15.0548 19.9943 14.0018L19.997 9.00601L20 8.99748C20 6.23538 17.7605 3.99685 14.9989 4.00001ZM15.0011 6.00001L15.1773 6.0049C16.6929 6.09109 17.9071 7.30468 17.9949 8.8212L17.9975 8.99937L17.9925 14H6V9.00001C6 7.34315 7.34315 6.00001 9 6.00001L15.0011 6.00001Z" fill="#ffffff"/>
</g>
</svg>
