<svg width="24" height="20" viewBox="0 0 24 20" fill="none" xmlns="http://www.w3.org/2000/svg">
<path d="M12 10.6429C12.5522 10.6429 12.9999 11.0907 13 11.6429V12.9173C13 13.4696 12.5523 13.9173 12 13.9173C11.4477 13.9173 11 13.4696 11 12.9173V11.6429C11.0001 11.0907 11.4478 10.6429 12 10.6429ZM13.5586 0.818695C14.8498 0.818734 15.996 1.49549 16.4043 2.49838L16.7207 3.27475H17.5C19.8935 3.27475 21.8643 4.80851 21.9941 6.77963L22 6.95932V8.5892C22 9.61252 21.2251 10.5265 20.0215 10.8978L19.8242 10.9505L16.1982 11.7992C15.8657 11.877 15.5295 11.9451 15.1914 12.0042C14.61 12.1059 14.0497 11.7725 13.9883 11.2884C13.8831 10.4602 13.026 9.82455 12 9.82455C10.9741 9.82455 10.1166 10.4605 10.0107 11.2884C9.94885 11.7713 9.38991 12.1045 8.80957 12.0042C8.58537 11.9655 8.3607 11.9219 8.125 11.8714L7.80176 11.7992L4.17578 10.9505C2.97401 10.6694 2.11325 9.8086 2.00781 8.75912L2 8.5892V6.95932C2.00002 4.9998 3.87361 3.38592 6.28125 3.27963L6.5 3.27475H7.2793L7.5957 2.49838C8.00403 1.49552 9.1502 0.818761 10.4414 0.818695H13.5586ZM6.3623 4.91537C5.04138 4.97385 4.00002 5.87089 4 6.95932L3.99902 8.55502L4.00391 8.65756C4.03813 8.99551 4.32507 9.28262 4.72559 9.37631L8.30176 10.2122L8.32031 10.1761C8.90774 9.04993 10.2406 8.25499 11.7959 8.19077L12 8.18686C13.6425 8.18686 15.0675 9.00134 15.6797 10.1771L15.6973 10.2132L19.2354 9.38608L19.3545 9.35483C19.7418 9.23496 20 8.93011 20 8.5892V6.9808L19.9961 6.84604C19.9246 5.76461 18.8295 4.91245 17.5 4.91245L16.002 4.91147L16 4.91245H8C7.99382 4.91244 7.98759 4.91156 7.98145 4.91147H6.52734L6.3623 4.91537ZM10.4414 2.45639C10.0111 2.45646 9.62928 2.68173 9.49316 3.01596L9.38574 3.27475H14.6133L14.5068 3.01596C14.3831 2.71215 14.0565 2.49773 13.6748 2.46127L13.5586 2.45639H10.4414Z" fill="#FFFFFF"/>
<g opacity="0.5">
<path d="M2.83571 11.4729C3.38048 11.3985 3.89572 11.6998 3.98654 12.1458L4.42935 14.3204C4.66045 15.4553 5.8195 16.2997 7.20638 16.3681L7.38851 16.3726H16.6118C18.0783 16.3726 19.3298 15.5046 19.571 14.3204L20.0138 12.1458C20.1046 11.6998 20.6198 11.3985 21.1646 11.4729C21.7094 11.5472 22.0774 11.9691 21.9865 12.4151L21.5437 14.5896C21.1544 16.5017 19.1846 17.919 16.8398 18.0057L16.6118 18.01H7.38851C4.9444 18.01 2.8585 16.5634 2.45658 14.5896L2.01377 12.4151C1.92295 11.9691 2.29095 11.5472 2.83571 11.4729Z" fill="#FFFFFF"/>
</g>
</svg>
